<svg width="48" height="48" viewBox="0 0 48 48" fill="none" xmlns="http://www.w3.org/2000/svg">
<circle cx="24" cy="24" r="22" fill="#e65555" stroke="#ffffff" stroke-width="2"/>
<path d="M16 12C16 10.8954 16.8954 10 18 10H30C31.1046 10 32 10.8954 32 12V14H34C35.1046 14 36 14.8954 36 16V32C36 33.1046 35.1046 34 34 34H14C12.8954 34 12 33.1046 12 32V16C12 14.8954 12.8954 14 14 14H16V12ZM18 12V16H30V12H18ZM14 16V32H34V16H14Z" fill="white"/>
<path d="M24 8C25.5 8 27 8.5 28 9.5L32 13.5C33 14.5 33.5 16 33.5 17.5C33.5 19 33 20.5 32 21.5L28 25.5C27 26.5 25.5 27 24 27C22.5 27 21 26.5 20 25.5L16 21.5C15 20.5 14.5 19 14.5 17.5C14.5 16 15 14.5 16 13.5L20 9.5C21 8.5 22.5 8 24 8Z" fill="white" fill-opacity="0.8"/>
<path d="M24 16C25.1046 16 26 16.8954 26 18C26 19.1046 25.1046 20 24 20C22.8954 20 22 19.1046 22 18C22 16.8954 22.8954 16 24 16Z" fill="#e65555"/>
<path d="M20 24H28C28.5523 24 29 24.4477 29 25C29 25.5523 28.5523 26 28 26H20C19.4477 26 19 25.5523 19 25C19 24.4477 19.4477 24 20 24Z" fill="#e65555"/>
<g opacity="0.6">
<path d="M16 30L18 28L20 30L22 28L24 30L26 28L28 30L30 28L32 30" stroke="#e65555" stroke-width="1.5" stroke-linecap="round"/>
</g>
</svg>
