<svg xmlns="http://www.w3.org/2000/svg" viewBox="0 0 255 150" id="loading-svg">
<style type="text/css">
	.st0{fill:none;stroke:#e65555;stroke-width:2;stroke-miterlimit:10;}
</style>
<g transform="translate(957, 1496) scale(1 1) rotate(210 145 125)">
	<g>
		<path class="st0 svg-elem-1" d="M1851.9,1007.8l-71.9,0l-0.1,0l35.9-62.3l0.1-0.1L1851.9,1007.8 M1828,966.4l-48,41.5 M1851.9,1007.8
			l-48.1-41.4"></path>
	</g>
</g>
<g>
	<path class="st0 svg-elem-2" d="M189.7,75l-62.3-36l0.1-0.1L189.8,3l0,0.1L189.7,75 M142.8,48l0-18 M174.4,11.8l15.6,9 M189.9,57.2l-15.6,9"></path>
	<path class="st0 svg-elem-3" d="M169,39l13.1,22.7L169,39 M169,39h-26.2H169 M169,39l13.1-22.6L169,39"></path>
</g>
<g transform="translate(957, 1496) scale(1 1) rotate(210 145 125)">
	<g>
		<path class="st0 svg-elem-4" d="M1887.8,945.5l-35.9,62.3l-0.1,0.1l-36-62.3l0-0.1L1887.8,945.5 M1840,945.5l11.9,62.3 M1887.8,945.5
			l-59.9,20.9"></path>
	</g>
</g>
<g transform="translate(2105, 1281) scale(1 1) rotate(30 145 125)">
	<g>
		<path class="st0 svg-elem-5" d="M-2304.8,2.4l-35.9-62.3l0.1,0l71.9,0l0,0.1L-2304.8,2.4 M-2332,-44.4l9-15.6 M-2286.5,-60l9,15.6
			 M-2295.8,-12.9l-18,0"></path>
		<path class="st0 svg-elem-6" d="M-2304.8,-39.1l0,26.2L-2304.8,-39.1 M-2304.8,-39.1l-22.7-13.1L-2304.8,-39.1 M-2304.8,-39.1l22.7-13
			L-2304.8,-39.1"></path>
	</g>
</g>
<g transform="translate(957, 1496) scale(1 1) rotate(210 145 125)">
	<g>
		<path class="st0 svg-elem-7" d="M1887.7,945.5l-71.9,0l0-0.1l36-62.3l0.1,0.1L1887.7,945.5 M1851.9,883.2l-11.9,62.3 M1827.9,924.6l59.9,20.9
			"></path>
	</g>
</g>
<g transform="translate(2105, 1281) scale(1 1) rotate(30 145 125)">
	<g>
		<path class="st0 svg-elem-8" d="M-2304.8,2.3l36-62.3l0.1,0.1l35.9,62.3l-0.1,0L-2304.8,2.3 M-2277.9,-44.6l18,0 M-2241.7,-13l-9,15.6
			 M-2287.1,2.6l-9-15.6"></path>
		<path class="st0 svg-elem-9" d="M-2268.9,-18.3l-22.7,13.1L-2268.9,-18.3 M-2268.9,-18.3v-26.2V-18.3 M-2268.9,-18.3l22.6,13.1L-2268.9,-18.3"></path>
	</g>
</g>
<g transform="translate(957, 1496) scale(1 1) rotate(210 145 125)">
	<g>
		<path class="st0 svg-elem-10" d="M1851.9,883.3l-36,62.3l-0.1-0.1l-35.9-62.3l0.1,0L1851.9,883.3 M1779.9,883.1l48,41.5 M1803.8,924.6
			l48.1-41.4"></path>
	</g>
</g>
<g transform="translate(2105, 1281) scale(1 1) rotate(30 145 125)">
	<g>
		<path class="st0 svg-elem-11" d="M-2304.9,2.3l71.9,0l0.1,0l-35.9,62.3l-0.1,0.1L-2304.9,2.3 M-2259.8,49.3l-18,0 M-2250.7,2.2l9,15.6
			 M-2296,17.8l9-15.6"></path>
		<path class="st0 svg-elem-12" d="M-2268.8,33.5l22.7-13.1L-2268.8,33.5 M-2268.8,33.5v26.2V33.5 M-2268.8,33.5l-22.6-13.1L-2268.8,33.5"></path>
	</g>
</g>
</svg>
