<svg id="parts" xmlns="http://www.w3.org/2000/svg" viewBox="0 0 103.58 64.24"><defs><style>.cls-1{fill:#fff;}</style></defs><path class="cls-1" d="M912.88,11444.7c2.24,2.43,4.58,2.78,10.14,2.78,3.68,0,8.68,0,12.52-.13v.45a2.27,2.27,0,0,0-1.83,2.15H923.06c-5.86,0-8.35-.77-10.56-4.68a52.49,52.49,0,0,1-4.74,4.64.65.65,0,0,1-.41.8l-1.64-3.1c1.19-.48,3-1.34,4.77-2.24v-9.44H906l-.19-1H910l1.41-1.82,3.07,2.49a2.56,2.56,0,0,1-1.6.64Zm-5.73-22.46c8.42,2.23,6.37,8,3.62,6.07a14.16,14.16,0,0,0-3.94-5.85Zm7.56,23.26c5.59-2.66,7.45-6,8.06-10.18H915l-.25-1h8.15c.16-1.6.2-3.29.23-5.15h-7.75l-.25-.93h10.69a57,57,0,0,0,2.78-7.13l3.74,1.4a1.08,1.08,0,0,1-1.21.58,40.41,40.41,0,0,1-4.32,5.15h3.55l1.6-2s1.82,1.35,2.94,2.37c0,.35-.38.51-.83.51h-8.09c0,1.86-.13,3.55-.32,5.15h5l1.67-2.05s1.85,1.44,3,2.5c-.09.35-.41.51-.86.51h-9a14,14,0,0,1-.71,2.66c10.91,2.75,10,9.18,6.82,7.71-1.22-2.4-4.39-5.28-7-7.1-1.35,3.1-4,5.56-9.44,7.45Zm3.48-24.13c7,2.53,4.51,7.65,2.08,5.63a11.4,11.4,0,0,0-2.43-5.44Z" transform="translate(-905.71 -11421.15)"/><path class="cls-1" d="M990,11422.43c-.13.38-.51.67-1.22.64a51.88,51.88,0,0,1-3.13,6.88l1.4.51a1.15,1.15,0,0,1-.92.58v18.84a3.06,3.06,0,0,1-2.15.83h-.45v-17.34a30.62,30.62,0,0,1-3.9,4.74l-.45-.32a58,58,0,0,0,7-16.58Zm16.35,3.39s1.85,1.5,3,2.53c-.09.35-.41.51-.83.51H989l-.26-.93h16Zm-1.92,4.35s1.79,1.41,2.88,2.43c-.07.36-.42.52-.86.52H991.06l-.26-.93h12Zm-13.6,6.27h12l1.57-2.05s1.79,1.44,2.88,2.5c-.07.32-.42.48-.86.48H991.06Zm14,2.82,2.84,2.17a2.18,2.18,0,0,1-1.28.61v7.62a3.45,3.45,0,0,1-2.17.8h-.39v-2.11H993.55v1.44c0,.22-1.09.8-2.14.8H991v-11l2.72,1.15h9.76Zm-13.28-14.85-.26-.89H1002l1.6-2.12s1.79,1.48,2.91,2.53c-.09.32-.41.48-.86.48Zm12.28,23v-5.79H993.55v5.79Z" transform="translate(-905.71 -11421.15)"/><path class="cls-1" d="M915.17,11474.65c3.65,1.45,5,3,5,5.55,0,3.24-2.65,5.19-6.45,5.19a10.4,10.4,0,0,1-5.33-1.45l.18-3.84H910l.7,3.42a5.59,5.59,0,0,0,2.87.67c2.65,0,4.38-1.2,4.38-3.42,0-1.78-1-2.63-3.45-3.6l-1-.42c-2.85-1.15-4.72-2.73-4.72-5.48,0-3.17,2.65-5,6.1-5a7.36,7.36,0,0,1,4.5,1.45l-.18,3.57h-1.42l-.7-3.27a4.22,4.22,0,0,0-2.23-.55c-2.2,0-3.82,1.1-3.82,3.2,0,1.75,1.12,2.8,3.1,3.57Z" transform="translate(-905.71 -11421.15)"/><path class="cls-1" d="M938.89,11484.17v.82l-3.8.23-.25-2.48a6.34,6.34,0,0,1-4.87,2.6c-2.23,0-3.6-1.3-3.58-5l.08-7-2-.4v-.8l4-.4.27.28-.12,3.87v4.3c0,2.45.77,3.3,2.27,3.3a5.42,5.42,0,0,0,3.83-1.8l.07-8.32-2-.38v-.82l4-.43.25.28L937,11476v7.9Z" transform="translate(-905.71 -11421.15)"/><path class="cls-1" d="M947.54,11473.7a5.67,5.67,0,0,1,4.23-2.05c3,0,5.22,2.5,5.22,6.72s-2.3,7-5.6,7a4.72,4.72,0,0,1-3.85-2l-.22,1.88-4.08-.28v-.85l2-.3c0-1.4.05-3.32.05-4.6V11467l-2.22-.23v-.82l4.15-1.15.35.2-.08,3.9Zm.05,8.74a4.74,4.74,0,0,0,3.3,1.5c2,0,3.7-1.55,3.7-5.37s-1.5-5.55-3.6-5.55a4.73,4.73,0,0,0-3.4,1.58Z" transform="translate(-905.71 -11421.15)"/><path class="cls-1" d="M984.54,11484.14v.85h-6.28v-.85l2-.3c0-1.37.05-3.27.05-4.6v-2.57c0-2.55-.73-3.27-2.3-3.27a5.56,5.56,0,0,0-3.75,1.82,11.89,11.89,0,0,1,.08,1.4v2.62c0,1.33,0,3.23.07,4.6l1.88.3v.85H970v-.85l2.07-.3c0-1.37,0-3.27,0-4.6v-2.52c0-2.5-.7-3.32-2.25-3.32a5.37,5.37,0,0,0-3.72,1.8v4c0,1.28,0,3.2.05,4.6l1.9.3v.85h-6.3v-.85l2-.3c0-1.4,0-3.32,0-4.6v-1.42c0-1.55,0-2.5-.07-3.6l-2.18-.22v-.83l3.85-1.5.38.25.22,2.23a6.69,6.69,0,0,1,4.78-2.5,3,3,0,0,1,3.25,2.57,6.4,6.4,0,0,1,4.94-2.57c2.23,0,3.5,1.37,3.5,4.75v2.84c0,1.33,0,3.23.05,4.6Z" transform="translate(-905.71 -11421.15)"/><path class="cls-1" d="M995.14,11484.14v.85h-6.3v-.85l2.1-.3c0-1.4,0-3.32,0-4.6v-1.45c0-1.52,0-2.42-.07-3.62l-2.23-.2v-.82l4.2-1.48.38.25,0,3.65v3.67c0,1.28,0,3.2,0,4.6Zm-4.85-17.32a1.77,1.77,0,0,1,3.53,0,1.77,1.77,0,0,1-3.53,0Z" transform="translate(-905.71 -11421.15)"/><path class="cls-1" d="M1007.44,11483.94a3.87,3.87,0,0,1-3.17,1.4c-1.95,0-3.1-1-3.1-3.2,0-.65,0-1.25,0-2.27v-6.65h-2.32v-1l2.45-.3.72-3.7h1.58l-.15,3.77h3.67v1.2h-3.7v8.82c0,1.45.6,2,1.58,2a3.06,3.06,0,0,0,1.87-.77Z" transform="translate(-905.71 -11421.15)"/></svg>